# File created by Blade
# Date/Time:  Wed Apr 08 14:55:03 2015
# Frame Rate: 120.000 fps
#------------------------------------------------------
:FULLY-SPECIFIED
:DEGREES
1369
root 6.215213 30.972264 -20.006026 15.686286 -8.806741 -4.783526
Spine -6.558320 5.235064 -2.750456
Head -2.042144 -7.151111 1.232066
LeftShoulder -22.109760 48.799790 5.030426
LeftArm 49.616088 5.062131 -78.459137
LeftForeArm 3.969102 -0.000000 117.497678
LeftHand 4.842813 -0.000000 -4.902158
LeftHandThumb1 -26.253704 0.000000 33.147579
RightShoulder -1.179885 -3.672431 -21.305002
RightArm 24.259426 -38.392084 78.574960
RightForeArm 1.607512 -0.000000 111.160399
RightHand 8.951581 -0.000000 3.914595
RightHandThumb1 -24.326973 -0.000000 -32.862282
LeftUpLeg -51.180036 -2.876801 16.110373
LeftLeg 45.975115 -0.000000 -0.000000
LeftFoot 4.417927 31.546358 -12.506308
LeftToeBase -8.351876 -0.000000 0.000000
RightUpLeg -7.522181 -9.390219 4.480318
RightLeg 16.253837 -0.000000 -0.000000
RightFoot -25.738529 -18.611062 17.009537
RightToeBase -4.951045 -0.000000 0.000000
1370
root 6.176008 30.994037 -20.068965 15.447506 -9.302195 -4.857499
Spine -6.144413 5.273174 -2.401894
Head -1.939438 -6.768598 0.972569
LeftShoulder -22.143544 48.965860 5.136988
LeftArm 49.235208 5.493195 -78.623018
LeftForeArm 4.366427 -0.000000 117.419191
LeftHand 4.715950 -0.000000 -4.671639
LeftHandThumb1 -26.253704 0.000000 33.147579
RightShoulder -1.297805 -3.886761 -21.363459
RightArm 24.040678 -38.428391 78.730931
RightForeArm 1.430766 0.000000 111.031627
RightHand 8.946507 -0.000000 3.862456
RightHandThumb1 -24.326973 -0.000000 -32.862282
LeftUpLeg -51.233926 -2.995809 16.080093
LeftLeg 46.346067 -0.000000 -0.000000
LeftFoot 4.328004 28.394251 -11.842983
LeftToeBase -8.652635 -0.000000 0.000000
RightUpLeg -7.292806 -8.964231 4.443845
RightLeg 16.126338 -0.000000 -0.000000
RightFoot -25.549149 -18.553330 16.906881
RightToeBase -5.030656 -0.000000 0.000000
1371
root 6.139157 31.017312 -20.121047 15.231217 -9.819995 -4.820585
Spine -5.830083 5.306828 -2.215087
Head -1.719494 -6.413872 0.765639
LeftShoulder -22.188264 49.247516 5.253964
LeftArm 48.934538 5.847805 -78.756544
LeftForeArm 4.500297 -0.000000 117.350851
LeftHand 4.726536 0.000000 -4.582518
LeftHandThumb1 -26.253704 0.000000 33.147579
RightShoulder -1.372858 -4.028011 -21.426000
RightArm 23.695702 -38.483941 78.988916
RightForeArm 1.404986 -0.000000 110.874083
RightHand 9.045716 -0.000000 3.881637
RightHandThumb1 -24.326973 -0.000000 -32.862282
LeftUpLeg -51.258795 -3.096176 15.838549
LeftLeg 46.546814 -0.000000 -0.000000
LeftFoot 4.151519 25.581304 -11.655361
LeftToeBase -9.352422 -0.000000 0.000000
RightUpLeg -7.080878 -8.753062 4.319256
RightLeg 15.981504 -0.000000 -0.000000
RightFoot -25.346055 -18.420479 16.681619
RightToeBase -4.839859 -0.000000 0.000000
1372
root 6.099271 31.039504 -20.162726 15.010847 -10.333213 -4.753124
Spine -5.558886 5.286894 -2.082325
Head -1.410715 -5.984773 0.562258
LeftShoulder -22.341298 49.557669 5.301679
LeftArm 48.706180 6.151754 -78.838805
LeftForeArm 4.356524 -0.000000 117.264826
LeftHand 4.833787 0.000000 -4.458800
LeftHandThumb1 -26.253704 0.000000 33.147579
RightShoulder -1.386714 -4.253777 -21.464573
RightArm 23.455156 -38.500022 79.220107
RightForeArm 1.339884 -0.000000 110.724952
RightHand 9.121441 0.000000 3.912743
RightHandThumb1 -24.326973 -0.000000 -32.862282
LeftUpLeg -51.290442 -3.106041 15.434473
LeftLeg 46.721111 -0.000000 -0.000000
LeftFoot 3.612720 23.149530 -11.983315
LeftToeBase -9.747588 -0.000000 0.000000
RightUpLeg -6.828480 -8.609542 4.186008
RightLeg 15.767366 -0.000000 -0.000000
RightFoot -25.150970 -18.347687 16.428085
RightToeBase -4.703136 -0.000000 0.000000
